<svg width="259" height="274" viewBox="0 0 259 274" fill="none" xmlns="http://www.w3.org/2000/svg">
<path d="M64.5781 228.102L65.9521 228.797V230.188L68.7001 231.579L75.5702 236.447L82.4402 239.924L92.0582 242.706L97.5542 243.401H105.111L114.729 241.315L116.79 242.01L111.294 245.487L105.111 247.574H91.3712L87.2492 246.878L89.9972 249.66L97.5542 251.051L105.111 250.355L114.729 246.183L122.973 239.924L127.782 233.665L129.156 230.883L131.217 231.579L134.652 237.142L137.4 240.619L146.331 246.878L154.575 250.355L158.01 251.051H163.506L171.063 248.964L172.437 246.878L161.445 248.269L154.575 247.574L145.644 244.096L142.896 241.315L149.766 242.706L154.575 243.401H162.819L173.811 241.315L184.804 236.447L190.987 231.579L193.048 229.492L194.422 230.188L188.926 241.315L182.743 249.66H181.369L179.995 252.442L173.124 258.701L162.132 265.655L153.201 269.827L143.583 272.609L132.591 274H126.408L116.103 272.609L105.111 269.132L94.1192 263.569L86.5622 258.005L79.6922 251.746L73.5092 245.487L67.3261 235.751L64.5781 229.492V228.102Z" fill="#FFFBF5"/>
<path d="M128.47 0L131.218 1.39086L138.088 12.5178L140.149 19.4721L139.462 26.4264L135.34 34.7716L133.279 42.4213V52.8528L136.027 57.0254L139.462 59.1117L156.637 61.8934L171.751 66.066L183.43 70.934L193.735 76.4974L202.666 82.7563L210.223 89.0152L218.467 97.3604L225.337 106.401L232.207 118.223L237.703 132.827L240.451 145.345L241.138 149.518V157.167H236.329L235.642 154.386L233.581 141.173L230.146 130.046L225.337 118.919L219.154 108.487L210.91 98.7512L204.727 92.4924L195.796 85.538L186.865 79.9746L173.812 73.7157L161.446 69.5431L136.714 63.9797L132.592 61.1979L129.844 58.4162L126.409 62.5888L121.6 64.6751L100.99 68.8477L82.4405 75.1066L68.0135 82.7563L59.7694 89.0152L50.8384 96.6649L43.9684 104.315L37.0984 114.051L31.6023 124.482L26.7933 137.695L24.7323 146.736L23.3583 157.167H17.8623L19.2363 144.65L22.6713 130.741L28.8543 116.137L35.0374 105.706L43.9684 94.5786L51.5254 86.9289L60.4564 79.9746L69.3875 74.4111L80.3795 68.8477L94.8066 63.9797L108.547 61.1979L120.226 59.1117L125.035 56.3299L127.096 51.4619V45.203L125.035 36.1624L119.539 24.3401V16.6903L122.974 8.34517L128.47 0Z" fill="#FFFBF5"/>
<path d="M129.155 86.2344L131.216 88.3207L138.773 103.62L144.269 118.224L146.33 125.874L147.017 134.219L145.643 141.173L141.521 149.519L135.338 155.777L132.59 157.864H130.529L129.842 127.96L129.155 127.265L128.468 157.864L125.72 157.168L121.598 154.387L115.415 146.041L112.667 137.696V128.656L115.415 117.529L120.911 103.62L129.155 86.2344Z" fill="#FFFBF5"/>
<path d="M104.423 25.7324H110.606L114.728 28.5141L119.537 33.3822L123.66 41.7273L124.347 44.5091V51.4634L121.599 54.9405L118.163 56.3314L99.6144 57.7223L87.2484 60.504L76.2564 64.6766L65.2643 70.24L54.2723 77.1943L47.4023 83.4532L41.9062 88.3212L35.7232 95.2755L27.4792 107.098L21.9832 117.529L16.4872 134.22L14.4262 144.651L13.0522 157.169H6.18213L6.86913 146.042L10.3041 128.656L15.1132 115.443L20.6092 104.316L26.1052 95.971L31.6012 89.0167L37.7842 82.0623L42.5932 77.1943L54.2723 68.1537L65.9513 61.1994L78.3174 55.636L89.9964 52.1588L102.362 50.0725L116.102 49.3771L116.789 47.9862L116.102 41.0319L112.667 38.2502H107.858L105.11 41.0319L104.423 45.8999H100.988L98.2404 41.0319V32.6867L101.675 27.1233L104.423 25.7324Z" fill="#FFFBF5"/>
<path d="M149.08 25.7324H154.576L158.011 27.8187L160.759 31.2959L162.133 35.4685L161.446 41.7273L158.698 45.8999L155.95 46.5954L155.263 45.8999L154.576 40.3365L151.828 38.2502L145.645 38.9456L143.584 42.4228V48.6816L144.271 49.3771L160.759 50.7679L174.499 53.5497L184.804 57.0268L196.483 62.5903L207.475 69.5446L216.406 77.1943L223.276 83.4532L230.146 91.1029L237.016 100.839L243.199 111.966L247.321 122.397L250.756 134.22L252.817 146.042L253.504 157.169H246.634L244.573 139.783L241.138 126.57L237.016 116.138L231.52 105.707L224.65 95.971L215.032 85.5395L206.101 77.8898L195.796 70.9354L184.804 65.372L172.438 60.504L164.881 58.4177L141.523 56.3314L137.401 54.2451L135.34 49.3771L136.714 40.3365L140.836 32.6867L146.332 27.1233L149.08 25.7324Z" fill="#FFFBF5"/>
<path d="M36.0689 169.684L34.3514 176.638L33.6644 180.81V187.765L35.0384 195.415L38.4734 202.369L43.9695 206.541L48.7785 208.628H54.9615L65.9535 205.846L74.8846 200.978L83.1286 195.762L76.9456 205.151L70.0755 211.409L60.4575 217.668L55.6485 221.841L52.9005 228.795L53.5875 237.836L57.0225 245.486L61.8315 252.44L68.0145 259.394L74.8846 264.958L76.9456 267.044L73.5105 266.349L65.9535 262.871L57.7095 258.003L48.7785 250.354L41.9084 242.704L35.0384 231.577L29.5424 219.755L26.1074 207.237L24.0464 193.328V187.765L26.1074 180.115L30.9164 173.856L36.0689 169.684Z" fill="#FFFBF5"/>
<path d="M223.276 170.383L226.024 171.774L230.833 176.642L233.581 182.205L234.268 184.291V198.895L231.52 212.804L227.398 224.626L221.902 235.753L215.032 244.794L209.536 251.053L202.666 256.616L195.796 261.484L186.178 266.352L182.743 267.048L186.178 263.571L192.361 258.703L198.544 251.748L204.727 241.317L206.101 237.144V226.713L203.353 221.149L197.17 216.281L189.613 211.413L185.491 207.936L184.804 207.241L184.117 206.545L183.43 205.85L182.743 205.154L177.934 198.2L177.247 196.114L179.995 197.505L185.491 201.677L193.735 205.85L204.727 208.632H210.223L215.719 206.545L221.215 202.373L224.65 195.418L226.024 184.987L224.65 174.555L223.276 170.383Z" fill="#FFFBF5"/>
<path d="M129.844 173.859L131.218 176.641L135.34 187.073L139.462 195.418L142.21 204.458V216.976L139.462 223.93L136.714 227.408L132.592 230.189L131.218 229.494V216.281L129.844 213.499L129.157 215.585L128.47 230.189L125.035 228.798L120.226 223.235L117.478 215.585V204.458L120.913 193.331L127.783 178.727L129.844 173.859Z" fill="#FFFBF5"/>
<path d="M95.4927 99.4492L101.676 101.536L107.172 105.708L111.294 110.576L111.981 111.967V118.921L109.233 127.962V138.393L112.668 146.739L118.164 153.693L122.286 156.475L121.599 157.865L113.355 155.779L106.485 151.607L101.676 146.739L96.8667 137.003L95.4927 125.876L96.8667 114.749V106.404L95.4927 99.4492Z" fill="#FFFBF5"/>
<path d="M161.445 100.143H163.506L162.819 105.011V116.137L163.506 121.006V132.132L161.445 139.782L158.01 146.041L153.201 151.604L146.331 155.777L141.522 157.168H136.713L140.148 154.386L144.957 149.518L149.079 142.564L150.453 137V128.655L147.705 119.615L147.018 114.747L149.079 109.183L151.827 105.706L158.697 101.533L161.445 100.143Z" fill="#FFFBF5"/>
<path d="M70.7622 114.748H79.6932L87.2503 117.53L90.6853 121.007L92.7463 123.789L93.4333 135.611L96.1813 143.261L103.051 152.301L107.86 156.474L106.486 157.169L97.5553 154.388L88.6243 149.52L83.8152 144.652L79.6932 137.002L76.9452 123.789L72.8232 117.53L70.7622 114.748Z" fill="#FFFBF5"/>
<path d="M179.996 114.748H188.927L184.805 119.616L182.057 125.18L179.309 137.002L176.561 142.565L170.378 149.52L163.508 153.692L155.951 156.474L151.829 157.169V155.778L157.325 150.91L163.508 142.565L165.569 137.697L166.943 123.789L169.691 119.616L173.813 116.834L179.996 114.748Z" fill="#FFFBF5"/>
<path d="M160.071 157.863H165.567L173.812 159.95L182.743 162.731V164.122L171.751 169.686L164.193 171.772H155.949L147.018 168.99L140.835 164.818L138.087 161.34L153.201 159.254L160.071 157.863Z" fill="#FFFBF5"/>
<path d="M94.8059 157.863L107.859 159.95L120.225 161.34L118.851 164.122L111.294 168.99L105.111 171.076L101.676 171.772H94.1189L85.1878 168.99L74.8828 164.122L77.6308 162.731L89.3099 158.559L94.8059 157.863Z" fill="#FFFBF5"/>
<path d="M166.94 214.889L172.436 215.584L176.558 220.452L177.245 226.711L175.184 230.884L170.375 233.665L164.879 232.97L161.444 230.188L160.07 227.406V221.148L162.131 217.67L164.879 215.584L166.94 214.889Z" fill="#FFFBF5"/>
<path d="M0 189.156L5.49602 190.547L13.053 194.72L17.1751 198.197L21.2971 204.456L24.7321 213.496L26.7931 222.537L23.3581 219.06L17.1751 210.019L10.305 200.979L2.06101 191.938L0 189.156Z" fill="#FFFBF5"/>
<path d="M257.626 189.156L259 189.852L250.069 198.892L242.512 208.628L234.955 219.755L232.894 221.842L234.268 213.496L238.39 203.065L243.199 196.806L252.13 191.243L257.626 189.156Z" fill="#FFFBF5"/>
<ellipse cx="12.3666" cy="173.162" rx="8.24403" ry="8.34517" fill="#FFFBF5"/>
<ellipse cx="50.8388" cy="159.253" rx="8.24403" ry="8.34517" fill="#FFFBF5"/>
<ellipse cx="50.8388" cy="193.328" rx="8.24403" ry="8.34517" fill="#FFFBF5"/>
<ellipse cx="90.683" cy="224.626" rx="8.24403" ry="8.34517" fill="#FFFBF5"/>
<ellipse cx="168.314" cy="224.626" rx="8.24403" ry="8.34517" fill="#FFFBF5"/>
<ellipse cx="208.848" cy="159.253" rx="8.24403" ry="8.34517" fill="#FFFBF5"/>
<ellipse cx="247.32" cy="172.468" rx="8.24403" ry="8.34517" fill="#FFFBF5"/>
<ellipse cx="208.16" cy="194.025" rx="8.24403" ry="8.34517" fill="#FFFBF5"/>
</svg>
