<svg width="332" height="332" viewBox="0 0 332 332" fill="none" xmlns="http://www.w3.org/2000/svg">
<path d="M323.48 111.25L326.228 111.603L328.702 113.016L330.626 115.488L331.725 118.667L332 120.08V124.318L330.901 132.089L328.702 143.391L325.404 156.106L322.656 165.995L319.358 176.238L315.785 186.834L313.036 193.898L310.288 200.255L307.815 205.906L305.066 211.204L302.318 216.855L298.745 223.213L294.897 229.924L291.874 234.515L289.675 238.047L286.377 242.992L283.354 247.23L281.43 250.056L272.911 261.005L270.712 263.477L266.864 267.716L262.742 272.307L258.344 276.899L253.947 281.137L248.45 286.082L241.305 292.086L235.808 296.325L229.212 300.916L223.99 304.448L218.219 307.98L210.523 312.218L201.179 316.81L195.682 319.282L188.536 322.108L173.146 327.053L163.527 329.172L151.984 330.938L139.891 331.997H120.378L111.308 331.291L99.4902 329.525L89.5961 327.406L81.6259 324.933L73.6557 322.108L66.51 319.282L60.4637 316.457L51.669 311.865L45.073 307.98L37.1028 303.035L30.7816 298.444L23.3611 292.793L15.116 285.729L10.169 281.137L6.59616 277.605L4.67232 275.133L3.57298 273.014L3.02332 271.248V265.95L4.12265 262.418L5.49682 260.652L7.6955 258.533L9.89417 257.473H13.1922L15.6657 258.886L18.6889 261.358L22.8114 265.596L28.0332 270.188L34.6293 275.839L39.3014 279.371L45.6226 283.963L55.2418 289.967L62.1127 293.852L70.3577 297.737L80.2518 301.976L89.5961 305.154L97.5663 307.274L108.01 309.393L117.08 310.452L122.027 310.806H137.692L147.311 310.099L156.931 308.686L169.023 305.861L180.841 302.329L187.987 299.503L197.881 295.265L203.652 292.439L212.722 287.141L216.295 284.669L217.669 283.256L218.219 282.197H218.768L219.318 280.784L221.791 275.486L223.166 271.248L224.265 265.596L224.54 262.771V255.354L223.715 248.643L221.517 240.166L217.944 228.158L212.722 210.145L210.523 201.315L209.149 192.485L208.874 188.953V179.064L209.699 171.646L211.348 164.936L213.546 157.872L215.745 152.927L219.043 146.923L222.066 142.684L224.265 139.859L227.563 136.68L231.96 133.148L237.182 129.969L242.129 127.85L247.626 126.437L250.649 126.084H255.871L261.368 126.791L266.864 128.557L272.086 131.029L277.308 134.561L281.705 138.446L285.278 142.684L288.301 146.57L291.325 151.867L294.073 157.872L296.821 166.349L299.57 175.885L300.394 176.944L302.318 172L305.891 161.757L308.639 152.221L311.662 139.859L314.136 127.85L315.785 118.667L317.159 115.488L319.083 113.016L321.831 111.603L323.48 111.25ZM251.474 147.982L246.252 149.042L240.48 151.514L236.907 154.34L234.159 157.165L231.96 159.991L230.036 163.523L228.113 167.761L226.464 173.059L225.364 179.064L225.089 181.889V186.481L225.914 193.191L227.838 200.608L230.586 210.498L234.983 225.685L236.907 232.396L239.656 242.286L241.03 249.703L241.579 257.826L241.854 264.89L243.228 264.184L247.626 259.945L251.474 256.06L254.497 252.881L258.344 248.643L259.719 246.524L260.268 243.345L259.993 236.988L258.619 229.571L255.596 217.915L251.748 205.2L248.176 192.132L245.702 183.302L244.878 179.064L245.152 175.532L246.527 172L248.725 169.527L251.474 168.114H254.772L257.795 169.527L259.719 172L261.368 176.238L264.116 185.774L268.788 202.021L273.185 217.915L275.109 224.979H276.209L281.156 217.209L283.904 212.617L286.103 208.026L286.652 204.494V198.843L286.103 193.545L284.179 184.715L281.156 173.766L278.132 165.289L275.934 161.051L273.46 157.519L270.437 154.34L266.315 151.514L262.467 149.748L259.444 148.689L255.321 147.982H251.474Z" fill="#03251C"/>
<path d="M228.113 0H236.083L242.954 1.05959L248.451 2.82557L252.573 4.59154L258.07 7.7703L262.742 10.9491L267.689 15.5406L270.712 18.7194L277.308 27.1961L280.057 31.7876L282.805 36.7323L285.279 42.3835L286.653 46.2686L286.928 47.6814V51.2134L285.828 55.0985L283.63 58.2773L280.881 60.0433L279.782 60.3965H277.033L274.56 59.3369L272.911 57.9241L271.262 55.4517L269.063 50.507L266.865 46.2686L264.666 42.7367L262.192 39.2047L260.818 37.0855L257.795 33.9068L253.673 30.0216L247.901 26.1365L242.13 23.6641L238.282 22.6045L235.534 22.2513H229.212L223.716 23.3109L219.318 25.0769L215.745 27.1961L212.722 29.3152L208.875 33.2004L206.401 36.026L204.202 39.5579L201.454 44.5027L199.255 49.8006L197.332 56.5113L195.957 63.9284L195.408 67.8136V81.9414L196.232 89.3585V94.3032L195.133 97.482L193.759 99.9544L191.01 102.074L189.087 102.78H186.613L183.59 101.367L181.391 98.8948L179.742 94.6564L178.918 90.4181L178.368 84.767L178.093 77.3499V72.7583L178.643 63.222L179.742 55.0985L181.391 48.0346L183.04 42.3835L185.789 34.9664L187.712 31.0812L190.461 26.1365L193.484 21.5449L197.332 16.6002L202.004 12.0087L206.951 8.1235L213.272 4.23835L219.043 1.76598L225.09 0.353196L228.113 0Z" fill="#03251C"/>
<path d="M49.745 83.3574H59.0894L65.6854 84.417L71.7318 86.5362L77.2284 89.3617L81.6258 92.1873L85.4735 95.0129L88.4966 97.8384L92.3443 101.724L95.0927 104.902L98.1158 108.788L100.589 112.673L104.437 119.383L106.911 124.681L108.56 129.273L108.834 131.039V133.864L108.01 137.043L106.636 139.869L104.712 141.988L102.238 143.401H97.841L95.6423 141.988L93.9933 140.222L91.5198 134.924L88.2218 128.566L85.1986 123.622L81.351 118.677L76.6788 114.085L72.8311 111.26L67.8841 108.434L62.1126 106.315L59.0894 105.609H50.0198L44.5232 107.022L40.1258 108.788L35.7285 111.613L32.7053 114.085L29.1324 117.971L26.6589 121.503L23.6358 126.8L20.6126 134.218L18.9636 140.222L17.5894 147.639L17.0397 153.29V162.473L17.5894 168.478L18.1391 172.363V177.661L17.0397 180.486L14.8411 183.665L12.0927 185.431L10.9934 185.784H7.97019L5.22185 184.371L3.02318 181.546L1.64901 178.014L0.549669 171.656L0 163.886V151.171L0.549669 144.46L2.19867 134.924L4.39735 126.8L6.59602 121.149L9.06953 115.498L11.8179 110.553L14.8411 105.609L16.7649 102.783L18.9636 100.311L21.7119 97.1321L25.2848 93.9533L29.9569 90.4213L35.4536 87.2426L40.6755 85.1234L46.447 83.7106L49.745 83.3574Z" fill="#03251C"/>
</svg>
